<svg xmlns="http://www.w3.org/2000/svg" version="1.1" xmlns:xlink="http://www.w3.org/1999/xlink" xmlns:svgjs="http://svgjs.dev/svgjs" width="1500" height="1500" viewBox="0 0 1500 1500"><rect width="1500" height="1500" fill="#f9f6ed"></rect><g transform="matrix(0.6666666666666666,0,0,0.6666666666666666,249.72891542618254,614.3861644926526)"><svg viewBox="0 0 209 56" data-background-color="#f9f6ed" preserveAspectRatio="xMidYMid meet" height="401" width="1500" xmlns="http://www.w3.org/2000/svg" xmlns:xlink="http://www.w3.org/1999/xlink"><g id="tight-bounds" transform="matrix(1,0,0,1,0.056656675927854394,0.40788574218748863)"><svg viewBox="0 0 208.8866866481443 55.184228515624994" height="55.184228515624994" width="208.8866866481443"><g><svg viewBox="0 0 208.8866866481443 55.184228515624994" height="55.184228515624994" width="208.8866866481443"><g><svg viewBox="0 0 208.8866866481443 55.184228515624994" height="55.184228515624994" width="208.8866866481443"><g id="textblocktransform"><svg viewBox="0 0 208.8866866481443 55.184228515624994" height="55.184228515624994" width="208.8866866481443" id="textblock"><g><svg viewBox="0 0 208.8866866481443 55.184228515624994" height="55.184228515624994" width="208.8866866481443"><g><svg><g></g><g></g></svg></g><g><svg><g><svg></svg></g><g></g></svg></g><g id="text-0"><svg viewBox="0 0 208.8866866481443 55.184228515624994" height="55.184228515624994" width="208.8866866481443"><g transform="matrix(1,0,0,1,0,0)"><svg width="106.06274414062499" viewBox="1.95 -33.5 65.55 34.11" height="55.184228515624994" data-palette-color="#21272d"><path d="M23.12 0L2.05 0 2.05-2.42Q7.06-7.35 10.52-11.13 13.99-14.92 15.8-17.97 17.6-21.02 17.6-23.71L17.6-23.71Q17.6-26.56 16.04-28.41 14.48-30.25 11.23-30.25L11.23-30.25Q9.18-30.25 7.39-29.09 5.59-27.93 4.15-26.27L4.15-26.27 1.95-28.44Q3.91-30.71 6.24-32.1 8.57-33.5 11.74-33.5L11.74-33.5Q16.26-33.5 18.9-30.86 21.53-28.22 21.53-23.9L21.53-23.9Q21.53-20.7 19.74-17.53 17.94-14.36 14.78-10.84 11.62-7.32 7.52-3.13L7.52-3.13Q8.81-3.25 10.29-3.32 11.77-3.39 13.04-3.39L13.04-3.39 23.12-3.39 23.12 0ZM47.9 0L29.49 0 29.49-3.3 37.08-3.3 37.08-27.93 31.1-27.93 31.1-30.49Q35.35-31.23 38.01-32.86L38.01-32.86 41.04-32.86 41.04-3.3 47.9-3.3 47.9 0ZM62.86 0.61L62.86 0.61Q58.93 0.61 57.39-1.66 55.85-3.93 55.85-7.62L55.85-7.62 55.85-21.73 52.14-21.73 52.14-24.78 56.07-24.98 56.54-33.08 59.83-33.08 59.83-24.98 66.69-24.98 66.69-21.73 59.83-21.73 59.83-7.52Q59.83-5.2 60.69-3.91 61.54-2.61 63.74-2.61L63.74-2.61Q64.4-2.61 65.13-2.75 65.86-2.88 66.62-3.22L66.62-3.22 67.5-0.44Q66.5 0 65.3 0.31 64.11 0.61 62.86 0.61Z" opacity="1" transform="matrix(1,0,0,1,0,0)" fill="#21272d" class="wordmark-text-0" data-fill-palette-color="primary"></path></svg></g><g><svg xmlns="http://www.w3.org/2000/svg" data-name="Layer 1" viewBox="2.430551295781235 20.791724898981606 95.13905147020833 58.4682751010184" x="119.09140624999999" y="0" height="55.184228515624994" width="89.79528039814429" class="icon-dxe-0" data-fill-palette-color="accent" id="dxe-0"><path d="M62.78 23L94.78 78.42 96.08 76.16H32.08L33.38 78.42 65.37 23A1.5 1.5 0 0 0 62.78 21.49L30.79 77A1.51 1.51 0 0 0 32.09 79.26H96.09A1.51 1.51 0 0 0 97.37 77L65.37 21.58A1.5 1.5 0 0 0 62.78 23" fill="#ea5141" data-fill-palette-color="accent"></path><path d="M34.63 23L66.63 78.42 67.93 76.16H3.93L5.23 78.42 37.22 23A1.5 1.5 0 0 0 34.63 21.49L2.63 77A1.51 1.51 0 0 0 3.93 79.26H67.93A1.51 1.51 0 0 0 69.21 77L37.21 21.58A1.5 1.5 0 0 0 34.63 23" fill="#ea5141" data-fill-palette-color="accent"></path></svg></g></svg></g></svg></g></svg></g></svg></g><g></g></svg></g><defs></defs></svg><rect width="208.8866866481443" height="55.184228515624994" fill="none" stroke="none" visibility="hidden"></rect></g></svg></g></svg>